<svg width="1088" height="658" viewBox="0 0 1088 658" fill="none" xmlns="http://www.w3.org/2000/svg">
<path d="M1017.23 126.12C768.606 340.773 277.718 352.127 0 153.161L191.01 640.495L588.5 570.161C744.617 458.532 943.353 302.571 1017.23 126.12Z" fill="#1FDCC5"/>
<path fill-rule="evenodd" clip-rule="evenodd" d="M1055.78 78.3042C1057.35 75.3331 1067.3 67.5275 1068.13 66.7838C1068.85 66.2636 1071.6 66.7356 1070.83 67.482C1067.89 70.0592 1059.97 85.91 1057.65 84.7106C1056.55 84.1402 1054.67 80.4082 1055.78 78.3042Z" fill="#020202"/>
<path fill-rule="evenodd" clip-rule="evenodd" d="M1042.61 79.9123C1040.31 81.7785 1048.11 79.4015 1047.26 80.7185C1044.97 87.5374 1040.92 93.1066 1038.29 95.4282C1038.24 101.659 1046.59 102.038 1047.8 101.239C1049.64 98.3448 1051.85 95.7072 1054.38 93.3958C1055.75 91.6799 1059.03 88.6817 1059.03 88.6817C1059.03 88.6817 1059.98 85.6871 1059.64 83.1796C1057.91 80.0953 1059.43 79.4288 1055.52 77.0228C1053.16 75.5814 1056.19 77.1119 1050.53 76.1924C1049.72 76.0734 1043.65 79.0369 1042.61 79.9123Z" fill="#020202"/>
<path fill-rule="evenodd" clip-rule="evenodd" d="M1043.03 100.022C1042.94 99.1704 1042.63 98.3556 1042.15 97.6503C1041.66 96.945 1041.01 96.3709 1040.24 95.979C1039.84 95.8028 1039.5 95.1364 1038.59 95.2167C1037.06 96.492 1035.62 97.8712 1034.28 99.3443C1032.38 101.401 1030.66 103.613 1029.13 105.958C1028.58 106.765 1028.12 107.458 1027.81 107.936C1026.29 108.252 1023.9 110.229 1023.9 110.229C1023.9 110.229 1020.6 114.56 1019.58 117.083C1019.09 118.412 1017.22 121.83 1017.1 121.783C1016.99 121.737 1015.8 121.693 1015.8 121.693C1015.8 121.693 1014.36 123.408 1013.95 125.522C1013.77 126.393 1013.27 127.815 1013.79 128.232C1013.88 128.285 1013.99 128.319 1014.1 128.33C1014.2 128.34 1014.31 128.328 1014.42 128.294C1016.04 127.949 1017.5 125.851 1019.15 124.005C1020 123.054 1020.91 122.156 1021.87 121.314C1023.18 120.174 1024.57 119.128 1026.02 118.184C1027.71 117.095 1028.78 116.505 1028.78 116.505C1028.78 116.505 1030.24 114.678 1031.67 113.46C1035.08 110.57 1039.86 109.285 1043.62 106.8C1043.62 106.8 1046.97 103.194 1048 100.96C1047.19 100.948 1043.83 100.003 1043.03 100.022Z" fill="#020202"/>
<path fill-rule="evenodd" clip-rule="evenodd" d="M1041.7 91.993C1041.7 91.993 1043.07 91.5394 1043.69 91.156C1045.41 90.2101 1046.26 89.7323 1046.61 89.5C1049.32 87.6758 1053.69 82.0153 1052.1 79.5131C1051.62 79.0291 1051.05 78.6475 1050.42 78.3917C1048.73 77.4595 1051.52 76.846 1049.59 76.7122C1048.11 76.6466 1040.89 80.5265 1040.89 80.5265C1039.31 84.1272 1038.33 90.1539 1038.33 90.1539L1041.7 91.993Z" fill="#020202"/>
<path fill-rule="evenodd" clip-rule="evenodd" d="M1060.16 74.4498L1055.08 77.5273L1054.53 79.5563L1058.8 79.7906L1060.16 74.4498Z" fill="#020202"/>
<path d="M1056.25 69.4609C1056.23 69.3763 1056.2 69.2916 1056.18 69.207C1056.12 69.035 1056.04 68.8761 1055.92 68.7406C1051.04 68.5692 1051.05 69.415 1050.51 71.3943C1050.2 72.5085 1050.07 75.1228 1048.22 76.9678L1055.26 77.5407C1055.29 77.2174 1055.05 75.9656 1054.96 75.666L1056.29 75.4446C1056.39 75.4167 1056.48 75.3534 1056.55 75.2653C1056.62 75.1541 1056.68 75.0363 1056.74 74.9133C1057.38 73.3507 1056.71 70.9851 1056.25 69.4609Z" fill="#020202"/>
<path d="M1055.97 69.9196L1056.08 69.8454C1056.33 69.6763 1056.51 69.4219 1056.58 69.1311C1056.72 68.5867 1056.81 68.0322 1056.86 67.4729L1056.33 67.9939L1056.57 66.6468C1055.17 67.5807 1053.26 67.8965 1051.74 68.5132C1050.09 69.3921 1050.46 70.7148 1050.88 71.7336C1050.95 71.8793 1051.03 72.0205 1051.12 72.1563C1051.27 72.1259 1051.43 72.1532 1051.57 72.2328C1051.7 72.3125 1051.8 72.4389 1051.85 72.5877C1051.85 72.5877 1051.95 73.4033 1052.07 73.2372C1052.18 73.0712 1052.65 72.6708 1052.65 72.6708C1052.65 72.6708 1052.66 71.0843 1052.35 70.6681C1051.96 70.2148 1053.6 70.0527 1053.81 70.07C1054.53 70.2233 1055.28 70.1712 1055.97 69.9196Z" fill="#1FDCC5"/>
<path d="M1070 65.4505L1068.08 66.842L1070.07 68.2733L1072.29 65.9L1074 64.9725L1074.27 63.1135L1071.78 62.5555L1070 65.4505Z" fill="black"/>
</svg>
