<?xml version="1.0" encoding="utf-8"?>
<!-- Generator: Adobe Illustrator 24.1.2, SVG Export Plug-In . SVG Version: 6.00 Build 0)  -->
<svg version="1.0" id="Layer_1" xmlns="http://www.w3.org/2000/svg" xmlns:xlink="http://www.w3.org/1999/xlink" x="0px" y="0px"
	 width="1560.9px" height="692.5px" viewBox="0 0 1560.9 692.5" style="enable-background:new 0 0 1560.9 692.5;"
	 xml:space="preserve">
<style type="text/css">
	.st0{fill:#1FDCC5;}
	.st1{fill-rule:evenodd;clip-rule:evenodd;fill:#1FDCC5;}
</style>
<g>
	<path class="st0" d="M1500.5,328.5C1251.9,543.2,612.5,654,0,0v692.5h1177.5C1248.5,637,1428,499.5,1500.5,328.5z"/>
	<path d="M1497.9,312.1c-0.2,0.2-0.4,0.4-0.7,0.5C1497.5,312.4,1497.7,312.2,1497.9,312.1z M1505.4,308.7c0.4,0.2,0.7,0.4,0.9,0.8
		C1506.1,309.1,1505.8,308.8,1505.4,308.7z"/>
	<path d="M1531,280.6c0.2,0.8,0.7,1.2,0.7,1.2s1.5,2.9,3.6,4.1c-4.3,0.3-6.1-1.4-7.5-3.6c0.6-0.2,0.6-0.2,0.6-0.2"/>
	<path d="M1549.3,271.7c-1.1,0.8-1.8,2-2.2,3.2c-0.4-0.2-7.7,5.1-9.5,5.7c-3.5,1.2-8.3,2.2-9.1,4.3c-0.8,2.1,2-1.8,1.8-2
		c-0.2-0.2-1-0.7-2.2-0.9c-1.2-0.2-2.6-0.1-3.5,0.3c-0.9,0.4-10.7,7.3-11.3,8c-0.6,0.7-1,1.7-1,1.7c1.8-1,3.4-0.2,3.9,1.4
		c0.4,0.7,1.1,0.5,2.2-0.4l3.8-0.2l-0.8,2.2c0,0-2.2,1.7-5,3.9c-3.4,2.7-6.4,10.5-7.7,14.7c-1.4,0.1-2.8,0.8-3.5,2.4
		c-0.6,1.4-2.3,7.2-2.3,7.2l-1.4,0.3c0,0-1.4,3.2-1.6,3.6c-0.8,2.5,0.7,2.5,0.7,2.5c0.3,0.1,0.7,0.1,1-0.2
		c6.3-6.3,12.5-12.1,19.3-17.7c4.6-3.8,6.3-7.9,9.9-12.5c2-1.4,9.1-7.4,9.6-7.7c0.4-0.3,3.5-6.9,3.7-8c0.5,0.1,7-6.6,8.2-7.8
		C1553.7,274.6,1550.5,270.9,1549.3,271.7z"/>
	<path d="M1530.8,280.7c0,0-0.3-1.3-0.4-2.1c-0.5-0.4-0.8-1.6-0.4-1.8c1.8-1,1.6,0.6,1.6,0.6s-1.5-1.4-1.4-2.2c0.1-0.7,1-2.6,1.8-3
		c0.8-0.4,1.3-0.3,1.7,0.2c0.5,0.6,1.1,1.3,1.1,1.4s0,0.3,0,0.3s2.7,4.4,2.8,4.9c-0.1,0.3-0.2,0.3-0.7,0.6c-0.5,0.3-0.5,0.3-0.5,0.5
		c0,0.2,0.1,0.9,0.3,1.4c-0.3,0.2-0.8,1.4-1,2.2c-0.6,0.8-0.7,1-1.7,0.6C1533.2,283.7,1531.5,282,1530.8,280.7z"/>
	<path class="st1" d="M1534.1,271.1c0.2,0.6,0.4,1.6,0,2.1c-0.3,0.4-0.8,0.6-1.4,0.8c-0.7,0.2-1.4,0.4-1.8,1.2
		c0.1,0,0.1,0.1,0.2,0.2c0.1,0.1,0.1,0.1,0.2,0.2c0.1,0.2,0.5,1.7,0.5,1.7s-0.5-0.4-0.8-0.3c-0.4,0.2-0.4,0.6-0.4,0.7c0,0,0,0,0,0
		c0,0.1,0.1,0.5,0.3,0.8c0.2,0.3,0.7,0.5,0.7,0.5c-0.5,0.4-0.5,0.8-0.6,1.2c0,0.2,0,0.3-0.1,0.5l-1.4-4.6c0,0,0-0.1-0.1-0.3
		c-0.2-0.5-0.1-1,0.5-1.7c0.4-0.4,0.8-0.8,1.3-1.1c0.8-0.7,1.7-1.4,2.3-2.3l0.3,1.3L1534.1,271.1z"/>
	<path d="M1555.1,269.8c-0.9,0.1,2.2-2.7,2.1-2.2c-0.3,0.3,0-0.6-0.1-0.4c-0.1,0.2-1.1,1.4-1.1,1.8c-0.3,0.1-1-0.2-1.4,0.2
		c-0.3,0.2-0.7,0.3-1.1,0.5c-0.3,0.1-0.6,0.2-0.9,0.3c-0.7,0.3-2.8,1.1-3.8,2c0.1,0.4,0.7,3.2,3.3,3.7c1.2-1,2.8-2.9,3.3-3.8
		c0,0,0-0.1,0.1-0.1c0.6-0.9,1.6-2.5,2.1-2.9c0.3,0-2.5,1.4-2.3,1.1C1556.2,269.1,1556,269.7,1555.1,269.8z"/>
	<path d="M1558.2,265.3l-1.4,1.4c-1.9,2.6-5.1,2.8-7.3,4.9c0.1,0.4,0.7,3.2,3.3,3.7c1.2-1,2.8-2.9,3.3-3.8c0,0,0-0.1,0.1-0.1
		c0.6-0.9,1.4-1.9,1.8-2.2c0.3,0,1.6,0,1.8-0.2c0.2-0.2,0.9-1,0.9-1l0.1-1.7C1560.9,266.2,1558.9,265.2,1558.2,265.3z"/>
	<path d="M1516.1,293.4c-0.3-1.7-1.5-2.9-3.3-2.1c-1.2,1.5-2.5,4.8-3,6.7c-0.1,0.4-0.2,0.8-0.2,1.1c0,0-1.2,1.2-1.7,2.1
		c0,0,0.4,1.1,0.8,1.6c0,0,0,0,0.1,0.1c0.2,0.4,0.5,0.5,0.5,0.5l2.7-1.5l0.1-0.9l-0.5-0.5l-0.1-0.6c0,0,0.1-0.2,0.3-0.6
		c0.4-0.6,1.3-2.1,1.3-2.1s5-3.8,5.6-4.3C1519.1,292.3,1516.4,294.1,1516.1,293.4z"/>
</g>
</svg>
