<svg width="1560" height="478" viewBox="0 0 1560 478" fill="none" xmlns="http://www.w3.org/2000/svg">
<path d="M1496.9 96.0999C1496.7 96.2999 1496.5 96.4999 1496.2 96.5999C1496.5 96.3999 1496.7 96.1999 1496.9 96.0999ZM1504.4 92.7C1504.8 92.9 1505.1 93.0999 1505.3 93.4999C1505.1 93.0999 1504.8 92.8 1504.4 92.7Z" fill="black"/>
<path d="M1530 64.6001C1530.2 65.4001 1530.7 65.8001 1530.7 65.8001C1530.7 65.8001 1532.2 68.7001 1534.3 69.9001C1530 70.2001 1528.2 68.5001 1526.8 66.3001C1527.4 66.1001 1527.4 66.1001 1527.4 66.1001" fill="black"/>
<path d="M1548.3 55.6999C1547.2 56.4999 1546.5 57.6999 1546.1 58.8999C1545.7 58.6999 1538.4 63.9999 1536.6 64.5999C1533.1 65.7999 1528.3 66.7999 1527.5 68.8999C1526.7 70.9999 1529.5 67.0999 1529.3 66.8999C1529.1 66.6999 1528.3 66.1999 1527.1 65.9999C1525.9 65.7999 1524.5 65.8999 1523.6 66.2999C1522.7 66.6999 1512.9 73.5999 1512.3 74.2999C1511.7 74.9999 1511.3 75.9999 1511.3 75.9999C1513.1 74.9999 1514.7 75.7999 1515.2 77.3999C1515.6 78.0999 1516.3 77.8999 1517.4 76.9999L1521.2 76.7999L1520.4 78.9999C1520.4 78.9999 1518.2 80.6999 1515.4 82.8999C1512 85.5999 1509 93.3999 1507.7 97.5999C1506.3 97.6999 1504.9 98.3999 1504.2 99.9999C1503.6 101.4 1501.9 107.2 1501.9 107.2L1500.5 107.5C1500.5 107.5 1499.1 110.7 1498.9 111.1C1498.1 113.6 1499.6 113.6 1499.6 113.6C1499.9 113.7 1500.3 113.7 1500.6 113.4C1506.9 107.1 1513.1 101.3 1519.9 95.6999C1524.5 91.8999 1526.2 87.7999 1529.8 83.1999C1531.8 81.7999 1538.9 75.7999 1539.4 75.4999C1539.8 75.1999 1542.9 68.5999 1543.1 67.4999C1543.6 67.5999 1550.1 60.8999 1551.3 59.6999C1552.7 58.5999 1549.5 54.8999 1548.3 55.6999Z" fill="black"/>
<path d="M1529.8 64.7C1529.8 64.7 1529.5 63.3999 1529.4 62.5999C1528.9 62.1999 1528.6 60.9999 1529 60.7999C1530.8 59.7999 1530.6 61.3999 1530.6 61.3999C1530.6 61.3999 1529.1 59.9999 1529.2 59.1999C1529.3 58.4999 1530.2 56.5999 1531 56.1999C1531.8 55.7999 1532.3 55.8999 1532.7 56.3999C1533.2 56.9999 1533.8 57.6999 1533.8 57.7999C1533.8 57.8999 1533.8 58.0999 1533.8 58.0999C1533.8 58.0999 1536.5 62.4999 1536.6 62.9999C1536.5 63.2999 1536.4 63.2999 1535.9 63.5999C1535.4 63.8999 1535.4 63.8999 1535.4 64.0999C1535.4 64.2999 1535.5 64.9999 1535.7 65.4999C1535.4 65.6999 1534.9 66.9 1534.7 67.7C1534.1 68.5 1534 68.6999 1533 68.2999C1532.2 67.6999 1530.5 66 1529.8 64.7Z" fill="black"/>
<path fill-rule="evenodd" clip-rule="evenodd" d="M1533.1 55.0999C1533.3 55.6999 1533.5 56.7 1533.1 57.2C1532.8 57.6 1532.3 57.7999 1531.7 57.9999C1531 58.1999 1530.3 58.4 1529.9 59.2C1530 59.2 1530 59.2999 1530.1 59.3999C1530.2 59.4999 1530.2 59.4999 1530.3 59.5999C1530.4 59.7999 1530.8 61.2999 1530.8 61.2999C1530.8 61.2999 1530.3 60.8999 1530 60.9999C1529.6 61.1999 1529.6 61.6 1529.6 61.7C1529.6 61.8 1529.7 62.1999 1529.9 62.4999C1530.1 62.7999 1530.6 62.9999 1530.6 62.9999C1530.1 63.3999 1530.1 63.8 1530 64.2C1530 64.4 1530 64.5 1529.9 64.7L1528.5 60.0999C1528.5 60.0999 1528.5 59.9999 1528.4 59.7999C1528.2 59.2999 1528.3 58.7999 1528.9 58.0999C1529.3 57.6999 1529.7 57.2999 1530.2 56.9999C1531 56.2999 1531.9 55.6 1532.5 54.7L1532.8 55.9999L1533.1 55.0999Z" fill="#1FDCC5"/>
<path d="M1554.1 53.7999C1553.2 53.8999 1556.3 51.1 1556.2 51.6C1555.9 51.9 1556.2 51 1556.1 51.2C1556 51.4 1555 52.6 1555 53C1554.7 53.1 1554 52.8 1553.6 53.2C1553.3 53.4 1552.9 53.5 1552.5 53.7C1552.2 53.8 1551.9 53.8999 1551.6 53.9999C1550.9 54.2999 1548.8 55.0999 1547.8 55.9999C1547.9 56.3999 1548.5 59.2 1551.1 59.7C1552.3 58.7 1553.9 56.7999 1554.4 55.8999C1554.4 55.8999 1554.4 55.7999 1554.5 55.7999C1555.1 54.8999 1556.1 53.2999 1556.6 52.8999C1556.9 52.8999 1554.1 54.2999 1554.3 53.9999C1555.2 53.0999 1555 53.6999 1554.1 53.7999Z" fill="black"/>
<path d="M1557.2 49.3L1555.8 50.7C1553.9 53.3 1550.7 53.5 1548.5 55.6C1548.6 56 1549.2 58.8 1551.8 59.3C1553 58.3 1554.6 56.4 1555.1 55.5C1555.1 55.5 1555.1 55.4 1555.2 55.4C1555.8 54.5 1556.6 53.5 1557 53.2C1557.3 53.2 1558.6 53.2 1558.8 53C1559 52.8 1559.7 52 1559.7 52L1559.8 50.3C1559.9 50.2 1557.9 49.2 1557.2 49.3Z" fill="black"/>
<path d="M1515.1 77.4C1514.8 75.7 1513.6 74.5 1511.8 75.3C1510.6 76.8 1509.3 80.1 1508.8 82C1508.7 82.4 1508.6 82.8 1508.6 83.1C1508.6 83.1 1507.4 84.3 1506.9 85.2C1506.9 85.2 1507.3 86.3 1507.7 86.8C1507.7 86.8 1507.7 86.8 1507.8 86.9C1508 87.3 1508.3 87.4 1508.3 87.4L1511 85.9L1511.1 85L1510.6 84.5L1510.5 83.9C1510.5 83.9 1510.6 83.7 1510.8 83.3C1511.2 82.7 1512.1 81.2 1512.1 81.2C1512.1 81.2 1517.1 77.4 1517.7 76.9C1518.1 76.3 1515.4 78.1 1515.1 77.4Z" fill="black"/>
<path d="M1500.5 112.5C1251 324 874.5 655 0 0.5V476.5C440.453 476.5 1124 477.825 1124 477.825C1252.85 395.081 1382.89 276.519 1500.5 112.5Z" fill="#1FDCC5"/>
</svg>
