<?xml version="1.0" encoding="utf-8"?>
<!-- Generator: Adobe Illustrator 24.1.2, SVG Export Plug-In . SVG Version: 6.00 Build 0)  -->
<svg version="1.1" id="Layer_1" xmlns="http://www.w3.org/2000/svg" xmlns:xlink="http://www.w3.org/1999/xlink" x="0px" y="0px"
	 viewBox="0 0 1559.8 692.5" style="enable-background:new 0 0 1559.8 692.5;" xml:space="preserve">
<style type="text/css">
	.st0{fill:#1FDCC5;}
	.st1{fill-rule:evenodd;clip-rule:evenodd;fill:#020202;}
	.st2{fill:#020202;}
</style>
<g>
	<path class="st0" d="M1500.5,328.5C1251.9,543.2,612.5,654,0,0l0,692.5h1177.5C1248.5,637,1428,499.5,1500.5,328.5z"/>
	<path class="st1" d="M1541.3,279.6c1.6-3,11.5-10.8,12.3-11.5c0.7-0.5,3.5,0,2.7,0.7c-3,2.6-10.9,18.4-13.2,17.2
		C1542,285.5,1540.2,281.7,1541.3,279.6z"/>
	<path class="st1" d="M1528.1,281.3c-2.3,1.9,5.5-0.5,4.6,0.8c-2.3,6.8-6.3,12.4-9,14.7c0,6.2,8.3,6.6,9.5,5.8
		c1.8-2.9,4-5.5,6.6-7.8c1.4-1.7,4.7-4.7,4.7-4.7s0.9-3,0.6-5.5c-1.7-3.1-0.2-3.8-4.1-6.2c-2.4-1.4,0.7,0.1-5-0.8
		C1535.2,277.4,1529.1,280.4,1528.1,281.3z"/>
	<path class="st1" d="M1528.5,301.4c-0.1-0.9-0.4-1.7-0.9-2.4c-0.5-0.7-1.1-1.3-1.9-1.7c-0.4-0.2-0.7-0.8-1.7-0.8
		c-1.5,1.3-3,2.7-4.3,4.1c-1.9,2.1-3.6,4.3-5.2,6.6c-0.5,0.8-1,1.5-1.3,2c-1.5,0.3-3.9,2.3-3.9,2.3s-3.3,4.3-4.3,6.9
		c-0.5,1.3-2.4,4.7-2.5,4.7c-0.1,0-1.3-0.1-1.3-0.1s-1.4,1.7-1.8,3.8c-0.2,0.9-0.7,2.3-0.2,2.7c0.1,0.1,0.2,0.1,0.3,0.1
		c0.1,0,0.2,0,0.3,0c1.6-0.3,3.1-2.4,4.7-4.3c0.8-0.9,1.8-1.8,2.7-2.7c1.3-1.1,2.7-2.2,4.1-3.1c1.7-1.1,2.8-1.7,2.8-1.7
		s1.5-1.8,2.9-3c3.4-2.9,8.2-4.2,11.9-6.7c0,0,3.4-3.6,4.4-5.8C1532.7,302.3,1529.3,301.3,1528.5,301.4z"/>
	<path class="st1" d="M1527.2,293.3c0,0,1.4-0.5,2-0.8c1.7-0.9,2.6-1.4,2.9-1.7c2.7-1.8,7.1-7.5,5.5-10c-0.5-0.5-1-0.9-1.7-1.1
		c-1.7-0.9,1.1-1.5-0.8-1.7c-1.5-0.1-8.7,3.8-8.7,3.8c-1.6,3.6-2.6,9.6-2.6,9.6L1527.2,293.3z"/>
	<path class="st1" d="M1545.7,275.8l-5.1,3.1l-0.6,2l4.3,0.2L1545.7,275.8z"/>
	<path class="st2" d="M1541.8,270.8c0-0.1,0-0.2-0.1-0.3c-0.1-0.2-0.1-0.3-0.3-0.5c-4.9-0.2-4.9,0.7-5.4,2.7
		c-0.3,1.1-0.4,3.7-2.3,5.6l7,0.6c0-0.3-0.2-1.6-0.3-1.9l1.3-0.2c0.1,0,0.2-0.1,0.3-0.2c0.1-0.1,0.1-0.2,0.2-0.4
		C1542.9,274.7,1542.2,272.3,1541.8,270.8z"/>
	<path class="st0" d="M1541.5,271.3l0.1-0.1c0.2-0.2,0.4-0.4,0.5-0.7c0.1-0.5,0.2-1.1,0.3-1.7l-0.5,0.5l0.2-1.3
		c-1.4,0.9-3.3,1.2-4.8,1.9c-1.6,0.9-1.3,2.2-0.8,3.2c0.1,0.1,0.1,0.3,0.2,0.4c0.2,0,0.3,0,0.5,0.1c0.1,0.1,0.2,0.2,0.3,0.4
		c0,0,0.1,0.8,0.2,0.6c0.1-0.2,0.6-0.6,0.6-0.6s0-1.6-0.3-2c-0.4-0.5,1.2-0.6,1.5-0.6C1540,271.6,1540.8,271.5,1541.5,271.3z"/>
	<path d="M1555.5,266.8l-1.9,1.4l2,1.4l2.2-2.4l1.7-0.9l0.3-1.9l-2.5-0.6L1555.5,266.8z"/>
</g>
</svg>
