<svg width="375" height="253" viewBox="0 0 375 253" fill="none" xmlns="http://www.w3.org/2000/svg">
<g clip-path="url(#clip0)">
<path d="M307.893 93.3041C307.708 93.3307 307.52 93.3665 307.333 93.4023C307.509 93.373 307.705 93.3398 307.893 93.3041ZM313.312 93.7396C313.497 93.9594 313.556 94.203 313.583 94.4571C313.556 94.203 313.499 93.9502 313.312 93.7396Z" fill="#1FDCC5"/>
<path d="M337.075 85.5784C336.907 86.103 337.096 86.4818 337.096 86.4818C337.096 86.4818 337.057 88.6798 337.908 89.9951C335.303 88.8156 334.814 87.228 334.716 85.514C335.128 85.591 335.128 85.591 335.128 85.591" fill="#1FDCC5"/>
<path d="M350.52 86.2712C349.617 86.3613 348.824 86.8279 348.243 87.4528C348.099 87.1951 342.154 87.9436 340.916 87.7519C338.498 87.3057 335.428 86.4066 334.273 87.3527C333.119 88.2988 336.01 86.9471 335.939 86.7791C335.859 86.6086 335.581 86.0567 334.95 85.5333C334.318 85.0099 333.48 84.6253 332.851 84.5856C332.209 84.5524 324.318 85.4307 323.761 85.6579C323.204 85.8851 322.621 86.3419 322.621 86.3419C324.012 86.3402 324.655 87.3107 324.411 88.3856C324.39 88.9124 324.894 89.0151 325.811 88.8402L328.076 89.9334L326.926 90.9618C326.926 90.9618 325.136 91.2331 322.779 91.6523C319.942 92.1309 315.716 95.6856 313.669 97.7188C312.82 97.3408 311.766 97.2998 310.905 97.9738C310.125 98.572 307.305 101.434 307.305 101.434L306.429 101.148C306.429 101.148 304.61 102.527 304.38 102.748C303.133 103.915 303.993 104.434 303.993 104.434C304.137 104.622 304.381 104.701 304.606 104.636C310.244 103 315.692 101.584 321.432 100.489C325.278 99.7689 327.639 97.9073 331.158 96.3754C332.772 96.1801 338.816 94.9973 339.139 94.9702C339.471 94.9457 343.359 92.1088 343.833 91.5129C344.102 91.7467 349.963 89.9204 351.042 89.6238C352.122 89.3271 351.423 86.1811 350.52 86.2712Z" fill="#1FDCC5"/>
<path d="M336.946 85.6058C336.946 85.6058 337.199 84.7799 337.416 84.259C337.234 83.8529 337.446 83.104 337.752 83.1017C339.118 83.0917 338.476 83.9273 338.476 83.9273C338.476 83.9273 338.075 82.621 338.373 82.2316C338.67 81.8422 339.799 81.0565 340.39 81.0951C340.983 81.1246 341.229 81.3024 341.334 81.7661C341.428 82.2365 341.584 82.8721 341.535 82.9075C341.485 82.9428 341.426 83.0838 341.426 83.0838C341.426 83.0838 341.593 86.474 341.505 86.8536C341.373 86.9739 341.306 86.965 340.942 86.9609C340.579 86.9569 340.588 86.9594 340.524 87.0796C340.463 87.1906 340.298 87.6369 340.244 87.9669C340.015 88.0106 339.309 88.5212 338.958 88.9251C338.339 89.1943 338.246 89.3158 337.779 88.7006C337.32 88.088 336.926 86.5862 336.946 85.6058Z" fill="#1FDCC5"/>
<path fill-rule="evenodd" clip-rule="evenodd" d="M341.843 81.0907C341.76 81.4896 341.577 82.1279 341.189 82.3346C340.882 82.4977 340.515 82.4216 340.126 82.3408C339.66 82.2441 339.162 82.1408 338.696 82.4324C338.726 82.4846 338.737 82.5468 338.735 82.6136C338.747 82.6693 338.757 82.7276 338.758 82.7804C338.765 82.9465 338.534 83.9075 338.534 83.9075C338.534 83.9075 338.391 83.5071 338.138 83.4854C337.885 83.4637 337.708 83.6739 337.686 83.731C337.683 83.7374 337.68 83.7455 337.676 83.7552C337.641 83.8478 337.55 84.0837 337.6 84.2898C337.656 84.5176 337.867 84.7881 337.867 84.7881C337.453 84.9002 337.3 85.1135 337.149 85.3247C337.088 85.4103 337.027 85.4956 336.949 85.5736L337.585 82.4334C337.585 82.4334 337.602 82.3337 337.66 82.2254C337.708 81.9102 337.931 81.6285 338.531 81.3906C338.885 81.2905 339.266 81.2174 339.654 81.1431C340.366 81.0068 341.098 80.8666 341.717 80.548L341.468 81.3827L341.843 81.0907Z" fill="#1FDCC5"/>
<path d="M354.481 87.0246C353.944 86.8333 356.627 86.149 356.4 86.43C356.145 86.496 356.603 86.0723 356.508 86.1638C356.386 86.2476 355.423 86.6306 355.296 86.8708C355.114 86.8192 354.779 86.4376 354.404 86.5092C354.187 86.5463 353.914 86.499 353.635 86.4398C353.44 86.3948 353.225 86.3538 353.026 86.327C352.524 86.2543 351.05 86.0946 350.189 86.3149C350.1 86.5955 349.594 88.3856 350.937 89.5338C351.952 89.3273 353.467 88.71 354.074 88.3783C354.097 88.3652 354.12 88.352 354.132 88.3455C354.727 88.0204 355.871 87.4141 356.255 87.3452C356.442 87.4816 354.383 87.346 354.564 87.2795C355.339 86.9954 355.019 87.2159 354.481 87.0246Z" fill="#1FDCC5"/>
<path d="M357.72 85.3709L356.436 85.7316C354.499 86.656 352.616 85.7409 350.662 86.241C350.573 86.5215 350.067 88.3116 351.41 89.4599C352.424 89.2534 353.94 88.636 354.546 88.3043C354.57 88.2912 354.593 88.2781 354.605 88.2715C355.2 87.9464 355.996 87.6389 356.381 87.5699C356.568 87.7063 357.306 88.085 357.487 88.0185C357.666 87.9528 358.349 87.7069 358.349 87.7069L358.972 86.7594C358.972 86.7594 358.13 85.5513 357.72 85.3709Z" fill="#1FDCC5"/>
<path d="M324.367 88.2825C324.743 87.1843 324.412 86.0855 323.124 86.0009C321.974 86.4882 320.134 87.9477 319.234 88.9102C319.049 89.1067 318.887 89.292 318.763 89.4518C318.763 89.4518 317.649 89.7681 317.133 90.1481C317.133 90.1481 317.028 90.9436 317.087 91.346C317.09 91.3668 317.094 91.3865 317.098 91.405C317.095 91.6734 317.212 91.8238 317.212 91.8238L319.251 91.7805L319.583 91.3095L319.469 90.8336L319.579 90.4653C319.579 90.4653 319.719 90.3693 319.929 90.2398C320.338 89.9862 321.353 89.4419 321.353 89.4419C321.353 89.4419 325.465 88.8235 325.964 88.7565C326.472 88.5768 324.324 88.7906 324.367 88.2825Z" fill="#1FDCC5"/>
<rect x="-3" width="378" height="174" fill="#1FDCC5" fill-opacity="0.07"/>
<path d="M302.907 234.812H298.523H294.997H291.503H287.976H277.429H270.408H263.388H256.334H249.314H242.293H235.24H231.746H227.989H224.726H221.199H217.672H210.652H207.125H203.631H200.105H193.084H189.557H186.064H182.537H179.01L169.089 215.37H146.38L116.756 48.7571L80.4926 192.433L43.5774 114.662L33.2938 207.977L22.3841 220.18L11.9357 68.2833L-0.22652 21.9043L-0.226562 252.775H302.874L302.907 234.812Z" fill="#020202"/>
<path d="M-0.226562 160.05L15.1502 170.011L25.3799 147.088L36.0951 166.051L82.4521 137.517L118.968 173.162L147.197 155.159L172.447 153.929L179.245 138.657L182.709 167.161L199.963 123.055L220.681 148.949L231.008 95.9912L248.295 131.426L255.19 156.87L268.981 122.965L275.908 130.796L289.699 105.563L296.627 150.959L300.932 132.146" stroke="#1FDCC5" stroke-width="1.3" stroke-miterlimit="10" stroke-linejoin="round"/>
<path d="M-18 186.072L298.957 105.025" stroke="#1FDCC5" stroke-width="1.3" stroke-linecap="round" stroke-linejoin="round" stroke-dasharray="1.58 6.34"/>
<path d="M276.016 92.2927V83.9907H278.984V82.9547H271.9V83.9907H274.854V92.2927H276.016ZM282.629 92.4607C284.407 92.4607 285.639 91.0887 285.639 88.9047C285.639 86.7067 284.407 85.3627 282.629 85.3627C281.677 85.3627 280.837 85.8527 280.347 86.5387V85.5307H279.297V94.8687H280.347V91.2707C280.893 92.0267 281.705 92.4607 282.629 92.4607ZM282.363 91.5227C281.537 91.5227 280.711 91.0187 280.347 90.4307V87.3787C280.711 86.7907 281.537 86.3007 282.363 86.3007C283.721 86.3007 284.533 87.4067 284.533 88.9047C284.533 90.4027 283.721 91.5227 282.363 91.5227ZM290.361 92.4607C291.467 92.4607 292.377 92.0967 293.049 91.4247L292.545 90.7387C292.013 91.2847 291.229 91.5927 290.459 91.5927C289.003 91.5927 288.107 90.5287 288.023 89.2547H293.497V88.9887C293.497 86.9587 292.293 85.3627 290.249 85.3627C288.317 85.3627 286.917 86.9447 286.917 88.9047C286.917 91.0187 288.359 92.4607 290.361 92.4607ZM292.461 88.4847H288.023C288.079 87.4487 288.793 86.2307 290.235 86.2307C291.775 86.2307 292.447 87.4767 292.461 88.4847ZM296.248 92.2927V89.2687H299.776V92.2927H300.826V85.5307H299.776V88.3447H296.248V85.5307H295.198V92.2927H296.248ZM302.124 94.0147H303.174V92.2927H308.284V94.0147H309.334V91.3687H308.55V85.5307H303.846L303.412 88.8627C303.146 90.8647 302.754 91.3127 302.124 91.4247V94.0147ZM304.77 86.4547H307.5V91.3687H303.482C303.972 90.9767 304.294 90.2627 304.462 88.9887L304.77 86.4547Z" fill="#1FDCC5"/>
<path d="M151.33 99.1328L156.776 91.6848V99.1328H157.938V89.7948H156.748L151.372 97.0888V89.7948H150.21V99.1328H151.33ZM166.982 99.1328V92.3708H165.582L163.538 97.3828L161.466 92.3708H160.08V99.1328H161.13V93.8268L163.342 99.1328H163.734L165.932 93.8268V99.1328H166.982ZM175.979 99.1328V92.3708H174.579L172.535 97.3828L170.463 92.3708H169.077V99.1328H170.127V93.8268L172.339 99.1328H172.731L174.929 93.8268V99.1328H175.979ZM177.695 101.779C177.891 101.835 178.241 101.877 178.465 101.877C179.361 101.863 180.047 101.485 180.453 100.505L183.841 92.3708H182.693L180.453 97.9148L178.199 92.3708H177.065L179.893 99.2028L179.445 100.225C179.207 100.785 178.899 100.939 178.437 100.939C178.269 100.939 178.017 100.897 177.863 100.827L177.695 101.779ZM185.986 99.1328V96.1088H189.514V99.1328H190.564V92.3708H189.514V95.1848H185.986V92.3708H184.936V99.1328H185.986ZM193.71 99.1328V96.1088H197.238V99.1328H198.288V92.3708H197.238V95.1848H193.71V92.3708H192.66V99.1328H193.71ZM200.385 92.3708V99.1328H203.969C205.355 99.1328 206.097 98.1808 206.097 97.0608C206.097 95.9548 205.369 94.9888 203.969 94.9888H201.435V92.3708H200.385ZM203.857 95.9128C204.627 95.9128 205.019 96.4028 205.019 97.0608C205.019 97.7328 204.613 98.2088 203.857 98.2088H201.435V95.9128H203.857ZM208.253 99.1328V92.3708H207.203V99.1328H208.253ZM211.36 99.1328L214.93 93.8688V99.1328H215.98V92.3708H214.944L211.402 97.5368V92.3708H210.352V99.1328H211.36ZM215.616 90.3688L215.098 89.9208C214.664 90.5508 213.978 90.9288 213.166 90.9288C212.34 90.9288 211.668 90.5368 211.22 89.9208L210.702 90.3688C211.276 91.1248 212.172 91.6008 213.166 91.6008C214.174 91.6008 215.056 91.1248 215.616 90.3688ZM167.417 115.301C168.649 115.301 169.377 114.797 169.895 114.125L169.195 113.481C168.747 114.083 168.173 114.363 167.473 114.363C166.031 114.363 165.135 113.243 165.135 111.745C165.135 110.247 166.031 109.141 167.473 109.141C168.173 109.141 168.747 109.407 169.195 110.023L169.895 109.379C169.377 108.707 168.649 108.203 167.417 108.203C165.401 108.203 164.043 109.743 164.043 111.745C164.043 113.761 165.401 115.301 167.417 115.301ZM173.649 115.133V109.295H175.623V108.371H170.639V109.295H172.599V115.133H173.649ZM182.277 115.133V110.485C182.277 108.847 181.087 108.203 179.659 108.203C178.553 108.203 177.685 108.567 176.957 109.323L177.447 110.051C178.049 109.407 178.707 109.113 179.519 109.113C180.499 109.113 181.227 109.631 181.227 110.541V111.759C180.681 111.129 179.911 110.835 178.987 110.835C177.839 110.835 176.621 111.549 176.621 113.061C176.621 114.531 177.839 115.301 178.987 115.301C179.897 115.301 180.667 114.979 181.227 114.363V115.133H182.277ZM179.365 114.545C178.385 114.545 177.699 113.929 177.699 113.075C177.699 112.207 178.385 111.591 179.365 111.591C180.107 111.591 180.821 111.871 181.227 112.431V113.705C180.821 114.265 180.107 114.545 179.365 114.545ZM186.664 115.133V109.295H188.638V108.371H183.654V109.295H185.614V115.133H186.664ZM189.637 117.779C189.833 117.835 190.183 117.877 190.407 117.877C191.303 117.863 191.989 117.485 192.395 116.505L195.783 108.371H194.635L192.395 113.915L190.141 108.371H189.007L191.835 115.203L191.387 116.225C191.149 116.785 190.841 116.939 190.379 116.939C190.211 116.939 189.959 116.897 189.805 116.827L189.637 117.779ZM199.86 115.301C201.092 115.301 201.82 114.797 202.338 114.125L201.638 113.481C201.19 114.083 200.616 114.363 199.916 114.363C198.474 114.363 197.578 113.243 197.578 111.745C197.578 110.247 198.474 109.141 199.916 109.141C200.616 109.141 201.19 109.407 201.638 110.023L202.338 109.379C201.82 108.707 201.092 108.203 199.86 108.203C197.844 108.203 196.486 109.743 196.486 111.745C196.486 113.761 197.844 115.301 199.86 115.301Z" fill="#1FDCC5"/>
<path d="M69.0039 210.87C70.7119 210.87 71.7059 209.848 71.7059 208.35C71.7059 207.23 70.8799 206.208 69.8859 206.054C70.7399 205.872 71.5239 205.088 71.5239 203.912C71.5239 202.512 70.5299 201.532 68.9059 201.532H64.7479V210.87H69.0039ZM68.7099 205.578H65.9099V202.568H68.7099C69.7599 202.568 70.3199 203.24 70.3199 204.08C70.3199 204.934 69.7599 205.578 68.7099 205.578ZM68.7659 209.834H65.9099V206.614H68.7659C69.9139 206.614 70.5019 207.37 70.5019 208.224C70.5019 209.218 69.8579 209.834 68.7659 209.834ZM74.5186 210.87L78.0886 205.606V210.87H79.1386V204.108H78.1026L74.5606 209.274V204.108H73.5106V210.87H74.5186ZM84.5672 211.038C86.3452 211.038 87.5772 209.666 87.5772 207.482C87.5772 205.284 86.3452 203.94 84.5672 203.94C83.6152 203.94 82.7752 204.43 82.2852 205.116V204.108H81.2352V213.446H82.2852V209.848C82.8312 210.604 83.6432 211.038 84.5672 211.038ZM84.3012 210.1C83.4752 210.1 82.6492 209.596 82.2852 209.008V205.956C82.6492 205.368 83.4752 204.878 84.3012 204.878C85.6592 204.878 86.4712 205.984 86.4712 207.482C86.4712 208.98 85.6592 210.1 84.3012 210.1ZM88.8689 213.516C89.0649 213.572 89.4149 213.614 89.6389 213.614C90.5349 213.6 91.2209 213.222 91.6269 212.242L95.0149 204.108H93.8669L91.6269 209.652L89.3729 204.108H88.2389L91.0669 210.94L90.6189 211.962C90.3809 212.522 90.0729 212.676 89.6109 212.676C89.4429 212.676 89.1909 212.634 89.0369 212.564L88.8689 213.516ZM99.0922 211.038C100.324 211.038 101.052 210.534 101.57 209.862L100.87 209.218C100.422 209.82 99.8482 210.1 99.1482 210.1C97.7062 210.1 96.8102 208.98 96.8102 207.482C96.8102 205.984 97.7062 204.878 99.1482 204.878C99.8482 204.878 100.422 205.144 100.87 205.76L101.57 205.116C101.052 204.444 100.324 203.94 99.0922 203.94C97.0762 203.94 95.7182 205.48 95.7182 207.482C95.7182 209.498 97.0762 211.038 99.0922 211.038ZM104.092 210.87V207.846H107.62V210.87H108.67V204.108H107.62V206.922H104.092V204.108H103.042V210.87H104.092ZM116.044 210.87V206.222C116.044 204.584 114.854 203.94 113.426 203.94C112.32 203.94 111.452 204.304 110.724 205.06L111.214 205.788C111.816 205.144 112.474 204.85 113.286 204.85C114.266 204.85 114.994 205.368 114.994 206.278V207.496C114.448 206.866 113.678 206.572 112.754 206.572C111.606 206.572 110.388 207.286 110.388 208.798C110.388 210.268 111.606 211.038 112.754 211.038C113.664 211.038 114.434 210.716 114.994 210.1V210.87H116.044ZM113.132 210.282C112.152 210.282 111.466 209.666 111.466 208.812C111.466 207.944 112.152 207.328 113.132 207.328C113.874 207.328 114.588 207.608 114.994 208.168V209.442C114.588 210.002 113.874 210.282 113.132 210.282ZM119.157 210.87L120.809 208.252H122.657V210.87H123.707V204.108H120.137C118.765 204.108 117.995 205.032 117.995 206.18C117.995 207.314 118.723 208.084 119.731 208.21L117.925 210.87H119.157ZM120.249 207.328C119.479 207.328 119.073 206.852 119.073 206.18C119.073 205.508 119.507 205.032 120.249 205.032H122.657V207.328H120.249ZM67.3829 226.87V223.846H70.9109V226.87H71.9609V220.108H70.9109V222.922H67.3829V220.108H66.3329V226.87H67.3829ZM79.3355 226.87V222.222C79.3355 220.584 78.1455 219.94 76.7175 219.94C75.6115 219.94 74.7435 220.304 74.0155 221.06L74.5055 221.788C75.1075 221.144 75.7655 220.85 76.5775 220.85C77.5575 220.85 78.2855 221.368 78.2855 222.278V223.496C77.7395 222.866 76.9695 222.572 76.0455 222.572C74.8975 222.572 73.6795 223.286 73.6795 224.798C73.6795 226.268 74.8975 227.038 76.0455 227.038C76.9555 227.038 77.7255 226.716 78.2855 226.1V226.87H79.3355ZM76.4235 226.282C75.4435 226.282 74.7575 225.666 74.7575 224.812C74.7575 223.944 75.4435 223.328 76.4235 223.328C77.1655 223.328 77.8795 223.608 78.2855 224.168V225.442C77.8795 226.002 77.1655 226.282 76.4235 226.282ZM86.1723 220.108H81.4403V226.87H82.4903V221.032H86.1723V220.108ZM90.8699 227.038C92.6479 227.038 93.8799 225.666 93.8799 223.482C93.8799 221.284 92.6479 219.94 90.8699 219.94C89.9179 219.94 89.0779 220.43 88.5879 221.116V220.108H87.5379V229.446H88.5879V225.848C89.1339 226.604 89.9459 227.038 90.8699 227.038ZM90.6039 226.1C89.7779 226.1 88.9519 225.596 88.5879 225.008V221.956C88.9519 221.368 89.7779 220.878 90.6039 220.878C91.9619 220.878 92.7739 221.984 92.7739 223.482C92.7739 224.98 91.9619 226.1 90.6039 226.1ZM95.1717 229.516C95.3677 229.572 95.7177 229.614 95.9417 229.614C96.8377 229.6 97.5237 229.222 97.9297 228.242L101.318 220.108H100.17L97.9297 225.652L95.6757 220.108H94.5417L97.3697 226.94L96.9217 227.962C96.6837 228.522 96.3757 228.676 95.9137 228.676C95.7457 228.676 95.4937 228.634 95.3397 228.564L95.1717 229.516ZM104.807 227.038C106.753 227.038 107.901 226.198 107.901 225.064C107.901 223.944 106.725 223.468 105.941 223.412C106.739 223.314 107.761 222.768 107.761 221.76C107.761 220.612 106.473 219.94 104.653 219.954C103.421 219.954 102.511 220.388 101.881 221.032L102.427 221.676C103.001 221.088 103.743 220.808 104.695 220.808C105.815 220.808 106.669 221.242 106.669 221.886C106.669 222.656 105.787 223.02 104.667 223.02H103.155V223.874H104.667C105.857 223.874 106.795 224.154 106.795 224.994C106.795 225.708 106.011 226.17 104.807 226.17C103.799 226.17 102.903 225.862 102.273 225.26L101.755 225.932C102.427 226.604 103.449 227.038 104.807 227.038ZM115.554 226.87L112.544 223.174L115.54 220.108H114.21L110.654 223.706V220.108H109.604V226.87H110.654V224.938L111.774 223.832L114.21 226.87H115.554ZM122.074 226.87V222.222C122.074 220.584 120.884 219.94 119.456 219.94C118.35 219.94 117.482 220.304 116.754 221.06L117.244 221.788C117.846 221.144 118.504 220.85 119.316 220.85C120.296 220.85 121.024 221.368 121.024 222.278V223.496C120.478 222.866 119.708 222.572 118.784 222.572C117.636 222.572 116.418 223.286 116.418 224.798C116.418 226.268 117.636 227.038 118.784 227.038C119.694 227.038 120.464 226.716 121.024 226.1V226.87H122.074ZM119.162 226.282C118.182 226.282 117.496 225.666 117.496 224.812C117.496 223.944 118.182 223.328 119.162 223.328C119.904 223.328 120.618 223.608 121.024 224.168V225.442C120.618 226.002 119.904 226.282 119.162 226.282Z" fill="white"/>
<path d="M19.9695 17.921H21.1315V16.199H28.0895V17.921H29.2515V15.163H28.3975V6.86097H22.6855L22.1115 11.551C21.7195 14.715 21.0895 15.191 19.9695 15.261V17.921ZM23.2595 11.635L23.7215 7.89697H27.2355V15.163H21.8315C22.5175 14.645 23.0215 13.609 23.2595 11.635ZM31.6967 16.199L35.2667 10.935V16.199H36.3167V9.43697H35.2807L31.7387 14.603V9.43697H30.6887V16.199H31.6967ZM43.6913 16.199V11.551C43.6913 9.91297 42.5013 9.26897 41.0733 9.26897C39.9673 9.26897 39.0993 9.63297 38.3713 10.389L38.8613 11.117C39.4633 10.473 40.1213 10.179 40.9333 10.179C41.9133 10.179 42.6413 10.697 42.6413 11.607V12.825C42.0953 12.195 41.3253 11.901 40.4013 11.901C39.2533 11.901 38.0353 12.615 38.0353 14.127C38.0353 15.597 39.2533 16.367 40.4013 16.367C41.3113 16.367 42.0813 16.045 42.6413 15.429V16.199H43.6913ZM40.7793 15.611C39.7993 15.611 39.1133 14.995 39.1133 14.141C39.1133 13.273 39.7993 12.657 40.7793 12.657C41.5213 12.657 42.2353 12.937 42.6413 13.497V14.771C42.2353 15.331 41.5213 15.611 40.7793 15.611ZM51.4241 16.199V9.43697H45.7961V16.199H46.8461V10.361H50.3741V16.199H51.4241ZM58.7987 16.199V11.551C58.7987 9.91297 57.6087 9.26897 56.1807 9.26897C55.0747 9.26897 54.2067 9.63297 53.4787 10.389L53.9687 11.117C54.5707 10.473 55.2287 10.179 56.0407 10.179C57.0207 10.179 57.7487 10.697 57.7487 11.607V12.825C57.2027 12.195 56.4327 11.901 55.5087 11.901C54.3607 11.901 53.1427 12.615 53.1427 14.127C53.1427 15.597 54.3607 16.367 55.5087 16.367C56.4187 16.367 57.1887 16.045 57.7487 15.429V16.199H58.7987ZM55.8867 15.611C54.9067 15.611 54.2207 14.995 54.2207 14.141C54.2207 13.273 54.9067 12.657 55.8867 12.657C56.6287 12.657 57.3427 12.937 57.7487 13.497V14.771C57.3427 15.331 56.6287 15.611 55.8867 15.611ZM63.2975 16.367C65.2435 16.367 66.3915 15.527 66.3915 14.393C66.3915 13.273 65.2155 12.797 64.4315 12.741C65.2295 12.643 66.2515 12.097 66.2515 11.089C66.2515 9.94097 64.9635 9.26897 63.1435 9.28297C61.9115 9.28297 61.0015 9.71697 60.3715 10.361L60.9175 11.005C61.4915 10.417 62.2335 10.137 63.1855 10.137C64.3055 10.137 65.1595 10.571 65.1595 11.215C65.1595 11.985 64.2775 12.349 63.1575 12.349H61.6455V13.203H63.1575C64.3475 13.203 65.2855 13.483 65.2855 14.323C65.2855 15.037 64.5015 15.499 63.2975 15.499C62.2895 15.499 61.3935 15.191 60.7635 14.589L60.2455 15.261C60.9175 15.933 61.9395 16.367 63.2975 16.367ZM71.0489 16.367C73.1069 16.367 74.3949 14.771 74.3949 12.811C74.3949 10.851 73.1069 9.26897 71.0489 9.26897C68.9909 9.26897 67.7029 10.851 67.7029 12.811C67.7029 14.771 68.9909 16.367 71.0489 16.367ZM71.0489 15.429C69.6069 15.429 68.7949 14.197 68.7949 12.811C68.7949 11.439 69.6069 10.207 71.0489 10.207C72.4909 10.207 73.2889 11.439 73.2889 12.811C73.2889 14.197 72.4909 15.429 71.0489 15.429ZM77.1566 16.199V13.175H80.6846V16.199H81.7346V9.43697H80.6846V12.251H77.1566V9.43697H76.1066V16.199H77.1566ZM85.2453 15.863C85.2453 15.191 84.8253 14.799 84.3633 14.799C83.9433 14.799 83.6213 15.149 83.6213 15.555C83.6213 15.975 83.9013 16.269 84.2933 16.269C84.3633 16.269 84.4613 16.255 84.4893 16.241C84.4333 16.703 84.0273 17.249 83.5793 17.543L84.0973 17.977C84.7413 17.515 85.2453 16.717 85.2453 15.863ZM94.4612 16.199C95.7072 16.199 96.4352 15.457 96.4352 14.365C96.4352 13.595 95.8892 12.881 95.2032 12.713C95.7772 12.531 96.2952 11.985 96.2952 11.173C96.2952 10.151 95.5812 9.43697 94.3912 9.43697H90.6672V16.199H94.4612ZM94.2512 15.275H91.7172V13.189H94.2512C94.9652 13.189 95.3432 13.693 95.3432 14.239C95.3432 14.883 94.9232 15.275 94.2512 15.275ZM94.2092 12.265H91.7172V10.361H94.2092C94.8532 10.361 95.2172 10.739 95.2172 11.327C95.2172 11.859 94.8672 12.265 94.2092 12.265ZM107.979 16.199L104.969 12.503L107.965 9.43697H106.635L103.079 13.035V9.43697H102.029V16.199H103.079V14.267L104.199 13.161L106.635 16.199H107.979ZM112.133 16.367C114.191 16.367 115.479 14.771 115.479 12.811C115.479 10.851 114.191 9.26897 112.133 9.26897C110.075 9.26897 108.787 10.851 108.787 12.811C108.787 14.771 110.075 16.367 112.133 16.367ZM112.133 15.429C110.691 15.429 109.879 14.197 109.879 12.811C109.879 11.439 110.691 10.207 112.133 10.207C113.575 10.207 114.373 11.439 114.373 12.811C114.373 14.197 113.575 15.429 112.133 15.429ZM119.473 16.199V10.361H121.447V9.43697H116.463V10.361H118.423V16.199H119.473ZM125.777 16.367C127.835 16.367 129.123 14.771 129.123 12.811C129.123 10.851 127.835 9.26897 125.777 9.26897C123.719 9.26897 122.431 10.851 122.431 12.811C122.431 14.771 123.719 16.367 125.777 16.367ZM125.777 15.429C124.335 15.429 123.523 14.197 123.523 12.811C123.523 11.439 124.335 10.207 125.777 10.207C127.219 10.207 128.017 11.439 128.017 12.811C128.017 14.197 127.219 15.429 125.777 15.429ZM134.167 16.367C135.945 16.367 137.177 14.995 137.177 12.811C137.177 10.613 135.945 9.26897 134.167 9.26897C133.215 9.26897 132.375 9.75897 131.885 10.445V9.43697H130.835V18.775H131.885V15.177C132.431 15.933 133.243 16.367 134.167 16.367ZM133.901 15.429C133.075 15.429 132.249 14.925 131.885 14.337V11.285C132.249 10.697 133.075 10.207 133.901 10.207C135.259 10.207 136.071 11.313 136.071 12.811C136.071 14.309 135.259 15.429 133.901 15.429ZM141.801 16.367C143.859 16.367 145.147 14.771 145.147 12.811C145.147 10.851 143.859 9.26897 141.801 9.26897C139.743 9.26897 138.455 10.851 138.455 12.811C138.455 14.771 139.743 16.367 141.801 16.367ZM141.801 15.429C140.359 15.429 139.547 14.197 139.547 12.811C139.547 11.439 140.359 10.207 141.801 10.207C143.243 10.207 144.041 11.439 144.041 12.811C144.041 14.197 143.243 15.429 141.801 15.429ZM153.761 16.199V9.43697H152.361L150.317 14.449L148.245 9.43697H146.859V16.199H147.909V10.893L150.121 16.199H150.513L152.711 10.893V16.199H153.761ZM19.7735 34.921H20.8235V33.199H25.9335V34.921H26.9835V32.275H26.1995V26.437H21.4955L21.0615 29.769C20.7955 31.771 20.4035 32.219 19.7735 32.331V34.921ZM22.4195 27.361H25.1495V32.275H21.1315C21.6215 31.883 21.9435 31.169 22.1115 29.895L22.4195 27.361ZM31.3731 33.367C33.4311 33.367 34.7191 31.771 34.7191 29.811C34.7191 27.851 33.4311 26.269 31.3731 26.269C29.3151 26.269 28.0271 27.851 28.0271 29.811C28.0271 31.771 29.3151 33.367 31.3731 33.367ZM31.3731 32.429C29.9311 32.429 29.1191 31.197 29.1191 29.811C29.1191 28.439 29.9311 27.207 31.3731 27.207C32.8151 27.207 33.6131 28.439 33.6131 29.811C33.6131 31.197 32.8151 32.429 31.3731 32.429ZM35.6329 33.367C36.9349 33.367 37.6629 32.415 37.9709 29.895L38.2789 27.361H41.0089V33.199H42.0589V26.437H37.3549L36.9209 29.769C36.6549 31.771 36.2629 32.499 35.6329 32.499V33.367ZM44.6455 33.199L47.0815 30.161L47.5575 30.637V33.199H48.6075V30.637L49.0835 30.161L51.5195 33.199H52.8635L49.8395 29.503L52.8495 26.437H51.5195L48.6075 29.405V26.437H47.5575V29.419L44.6455 26.437H43.3155L46.3115 29.503L43.3015 33.199H44.6455ZM57.1196 33.367C58.2256 33.367 59.1356 33.003 59.8076 32.331L59.3036 31.645C58.7716 32.191 57.9876 32.499 57.2176 32.499C55.7616 32.499 54.8656 31.435 54.7816 30.161H60.2556V29.895C60.2556 27.865 59.0516 26.269 57.0076 26.269C55.0756 26.269 53.6756 27.851 53.6756 29.811C53.6756 31.925 55.1176 33.367 57.1196 33.367ZM59.2196 29.391H54.7816C54.8376 28.355 55.5516 27.137 56.9936 27.137C58.5336 27.137 59.2056 28.383 59.2196 29.391ZM63.0063 33.199V30.175H66.5343V33.199H67.5843V26.437H66.5343V29.251H63.0063V26.437H61.9563V33.199H63.0063ZM76.2442 33.367C78.3022 33.367 79.5902 31.771 79.5902 29.811C79.5902 27.851 78.3022 26.269 76.2442 26.269C74.1862 26.269 72.8982 27.851 72.8982 29.811C72.8982 31.771 74.1862 33.367 76.2442 33.367ZM76.2442 32.429C74.8022 32.429 73.9902 31.197 73.9902 29.811C73.9902 28.439 74.8022 27.207 76.2442 27.207C77.6862 27.207 78.4842 28.439 78.4842 29.811C78.4842 31.197 77.6862 32.429 76.2442 32.429ZM84.284 33.367C85.516 33.367 86.244 32.863 86.762 32.191L86.062 31.547C85.614 32.149 85.04 32.429 84.34 32.429C82.898 32.429 82.002 31.309 82.002 29.811C82.002 28.313 82.898 27.207 84.34 27.207C85.04 27.207 85.614 27.473 86.062 28.089L86.762 27.445C86.244 26.773 85.516 26.269 84.284 26.269C82.268 26.269 80.91 27.809 80.91 29.811C80.91 31.827 82.268 33.367 84.284 33.367ZM90.5156 33.199V27.361H92.4896V26.437H87.5056V27.361H89.4656V33.199H90.5156ZM99.1444 33.199V28.551C99.1444 26.913 97.9544 26.269 96.5264 26.269C95.4204 26.269 94.5524 26.633 93.8244 27.389L94.3144 28.117C94.9164 27.473 95.5744 27.179 96.3864 27.179C97.3664 27.179 98.0944 27.697 98.0944 28.607V29.825C97.5484 29.195 96.7784 28.901 95.8544 28.901C94.7064 28.901 93.4884 29.615 93.4884 31.127C93.4884 32.597 94.7064 33.367 95.8544 33.367C96.7644 33.367 97.5344 33.045 98.0944 32.429V33.199H99.1444ZM96.2324 32.611C95.2524 32.611 94.5664 31.995 94.5664 31.141C94.5664 30.273 95.2524 29.657 96.2324 29.657C96.9744 29.657 97.6884 29.937 98.0944 30.497V31.771C97.6884 32.331 96.9744 32.611 96.2324 32.611ZM105.043 33.199C106.289 33.199 107.017 32.457 107.017 31.365C107.017 30.595 106.471 29.881 105.785 29.713C106.359 29.531 106.877 28.985 106.877 28.173C106.877 27.151 106.163 26.437 104.973 26.437H101.249V33.199H105.043ZM104.833 32.275H102.299V30.189H104.833C105.547 30.189 105.925 30.693 105.925 31.239C105.925 31.883 105.505 32.275 104.833 32.275ZM104.791 29.265H102.299V27.361H104.791C105.435 27.361 105.799 27.739 105.799 28.327C105.799 28.859 105.449 29.265 104.791 29.265ZM114.279 33.199V28.551C114.279 26.913 113.089 26.269 111.661 26.269C110.555 26.269 109.687 26.633 108.959 27.389L109.449 28.117C110.051 27.473 110.709 27.179 111.521 27.179C112.501 27.179 113.229 27.697 113.229 28.607V29.825C112.683 29.195 111.913 28.901 110.989 28.901C109.841 28.901 108.623 29.615 108.623 31.127C108.623 32.597 109.841 33.367 110.989 33.367C111.899 33.367 112.669 33.045 113.229 32.429V33.199H114.279ZM111.367 32.611C110.387 32.611 109.701 31.995 109.701 31.141C109.701 30.273 110.387 29.657 111.367 29.657C112.109 29.657 112.823 29.937 113.229 30.497V31.771C112.823 32.331 112.109 32.611 111.367 32.611ZM118.666 33.199V27.361H120.64V26.437H115.656V27.361H117.616V33.199H118.666ZM122.017 26.437V33.199H125.601C126.987 33.199 127.729 32.247 127.729 31.127C127.729 30.021 127.001 29.055 125.601 29.055H123.067V26.437H122.017ZM125.489 29.979C126.259 29.979 126.651 30.469 126.651 31.127C126.651 31.799 126.245 32.275 125.489 32.275H123.067V29.979H125.489ZM132.313 33.367C133.545 33.367 134.273 32.863 134.791 32.191L134.091 31.547C133.643 32.149 133.069 32.429 132.369 32.429C130.927 32.429 130.031 31.309 130.031 29.811C130.031 28.313 130.927 27.207 132.369 27.207C133.069 27.207 133.643 27.473 134.091 28.089L134.791 27.445C134.273 26.773 133.545 26.269 132.313 26.269C130.297 26.269 128.939 27.809 128.939 29.811C128.939 31.827 130.297 33.367 132.313 33.367ZM137.271 33.199L138.923 30.581H140.771V33.199H141.821V26.437H138.251C136.879 26.437 136.109 27.361 136.109 28.509C136.109 29.643 136.837 30.413 137.845 30.539L136.039 33.199H137.271ZM138.363 29.657C137.593 29.657 137.187 29.181 137.187 28.509C137.187 27.837 137.621 27.361 138.363 27.361H140.771V29.657H138.363ZM149.811 33.199V27.361H151.785V26.437H146.801V27.361H148.761V33.199H149.811ZM156.493 33.367C158.271 33.367 159.503 31.995 159.503 29.811C159.503 27.613 158.271 26.269 156.493 26.269C155.541 26.269 154.701 26.759 154.211 27.445V26.437H153.161V35.775H154.211V32.177C154.757 32.933 155.569 33.367 156.493 33.367ZM156.227 32.429C155.401 32.429 154.575 31.925 154.211 31.337V28.285C154.575 27.697 155.401 27.207 156.227 27.207C157.585 27.207 158.397 28.313 158.397 29.811C158.397 31.309 157.585 32.429 156.227 32.429ZM164.225 33.367C165.331 33.367 166.241 33.003 166.913 32.331L166.409 31.645C165.877 32.191 165.093 32.499 164.323 32.499C162.867 32.499 161.971 31.435 161.887 30.161H167.361V29.895C167.361 27.865 166.157 26.269 164.113 26.269C162.181 26.269 160.781 27.851 160.781 29.811C160.781 31.925 162.223 33.367 164.225 33.367ZM166.325 29.391H161.887C161.943 28.355 162.657 27.137 164.099 27.137C165.639 27.137 166.311 28.383 166.325 29.391ZM170.112 33.199V30.175H173.64V33.199H174.69V26.437H173.64V29.251H170.112V26.437H169.062V33.199H170.112ZM175.988 34.921H177.038V33.199H182.148V34.921H183.198V32.275H182.414V26.437H177.71L177.276 29.769C177.01 31.771 176.618 32.219 175.988 32.331V34.921ZM178.634 27.361H181.364V32.275H177.346C177.836 31.883 178.158 31.169 178.326 29.895L178.634 27.361Z" fill="white"/>
<g opacity="0.3">
<line opacity="0.5" x1="370.538" y1="253.849" x2="370.538" y2="238" stroke="white"/>
<line opacity="0.5" x1="282.906" y1="253.849" x2="282.906" y2="238" stroke="white"/>
<line opacity="0.5" x1="195.273" y1="253.849" x2="195.273" y2="238" stroke="white"/>
<line opacity="0.5" x1="107.641" y1="253.849" x2="107.641" y2="238" stroke="white"/>
<line opacity="0.5" y1="-0.5" x2="15.8489" y2="-0.5" transform="matrix(-1.59221e-06 -1 1 -1.20002e-09 20.5088 253.849)" stroke="white"/>
</g>
<path opacity="0.5" d="M30.6654 248.602V247.714H26.7414C28.9734 245.95 30.6294 244.462 30.6294 242.83C30.6294 241.234 29.2734 240.478 27.9414 240.478C26.8134 240.478 25.7694 240.934 25.1574 241.738L25.7694 242.374C26.2374 241.774 26.9814 241.366 27.9414 241.366C28.7694 241.366 29.6094 241.81 29.6094 242.83C29.6094 244.21 28.0494 245.542 25.1694 247.81V248.602H30.6654ZM35.2481 248.746C37.4321 248.746 38.3081 246.55 38.3081 244.606C38.3081 242.65 37.4321 240.478 35.2481 240.478C33.0521 240.478 32.1881 242.65 32.1881 244.606C32.1881 246.55 33.0521 248.746 35.2481 248.746ZM35.2481 247.858C33.7241 247.858 33.2081 246.202 33.2081 244.606C33.2081 243.01 33.7241 241.366 35.2481 241.366C36.7721 241.366 37.2881 243.01 37.2881 244.606C37.2881 246.202 36.7721 247.858 35.2481 247.858ZM42.0558 248.602V240.598H41.1798L39.1758 242.662L39.7758 243.274L41.0598 241.918V248.602H42.0558ZM46.6022 248.746C48.2102 248.746 49.4462 247.738 49.4462 246.106C49.4462 244.462 48.2342 243.55 46.9022 243.55C46.0982 243.55 45.4142 243.886 45.0302 244.27V241.486H48.9302V240.598H44.0342V244.918L44.7662 245.17C45.3062 244.642 45.9062 244.414 46.6142 244.414C47.6942 244.414 48.4502 245.086 48.4502 246.142C48.4502 247.114 47.6942 247.858 46.6022 247.858C45.6182 247.858 44.9222 247.474 44.3942 246.802L43.7822 247.462C44.3822 248.254 45.2462 248.746 46.6022 248.746Z" fill="white"/>
<path opacity="0.5" d="M119.526 248.602V247.714H115.602C117.834 245.95 119.49 244.462 119.49 242.83C119.49 241.234 118.134 240.478 116.802 240.478C115.674 240.478 114.63 240.934 114.018 241.738L114.63 242.374C115.098 241.774 115.842 241.366 116.802 241.366C117.63 241.366 118.47 241.81 118.47 242.83C118.47 244.21 116.91 245.542 114.03 247.81V248.602H119.526ZM124.108 248.746C126.292 248.746 127.168 246.55 127.168 244.606C127.168 242.65 126.292 240.478 124.108 240.478C121.912 240.478 121.048 242.65 121.048 244.606C121.048 246.55 121.912 248.746 124.108 248.746ZM124.108 247.858C122.584 247.858 122.068 246.202 122.068 244.606C122.068 243.01 122.584 241.366 124.108 241.366C125.632 241.366 126.148 243.01 126.148 244.606C126.148 246.202 125.632 247.858 124.108 247.858ZM130.916 248.602V240.598H130.04L128.036 242.662L128.636 243.274L129.92 241.918V248.602H130.916ZM135.547 248.746C137.299 248.746 138.355 247.522 138.355 246.13C138.355 244.426 137.179 243.574 135.739 243.574C134.707 243.574 133.819 244.27 133.471 244.822C133.459 244.714 133.459 244.618 133.459 244.51C133.459 242.938 134.167 241.366 135.715 241.366C136.555 241.366 137.023 241.702 137.431 242.182L137.935 241.438C137.443 240.874 136.747 240.478 135.715 240.478C133.471 240.478 132.463 242.446 132.463 244.618C132.463 246.79 133.315 248.746 135.547 248.746ZM135.511 247.858C134.119 247.858 133.591 246.634 133.495 245.638C133.939 244.93 134.707 244.438 135.499 244.438C136.531 244.438 137.347 244.99 137.347 246.166C137.347 246.934 136.747 247.858 135.511 247.858Z" fill="white"/>
<path opacity="0.5" d="M205.393 248.602V247.714H201.469C203.701 245.95 205.357 244.462 205.357 242.83C205.357 241.234 204.001 240.478 202.669 240.478C201.541 240.478 200.497 240.934 199.885 241.738L200.497 242.374C200.965 241.774 201.709 241.366 202.669 241.366C203.497 241.366 204.337 241.81 204.337 242.83C204.337 244.21 202.777 245.542 199.897 247.81V248.602H205.393ZM209.976 248.746C212.16 248.746 213.036 246.55 213.036 244.606C213.036 242.65 212.16 240.478 209.976 240.478C207.78 240.478 206.916 242.65 206.916 244.606C206.916 246.55 207.78 248.746 209.976 248.746ZM209.976 247.858C208.452 247.858 207.936 246.202 207.936 244.606C207.936 243.01 208.452 241.366 209.976 241.366C211.5 241.366 212.016 243.01 212.016 244.606C212.016 246.202 211.5 247.858 209.976 247.858ZM216.784 248.602V240.598H215.908L213.904 242.662L214.504 243.274L215.788 241.918V248.602H216.784ZM220.274 248.602L223.55 241.282V240.598H218.09V241.486H222.398L219.17 248.602H220.274Z" fill="white"/>
<path opacity="0.5" d="M291.393 248.602V247.714H287.469C289.701 245.95 291.357 244.462 291.357 242.83C291.357 241.234 290.001 240.478 288.669 240.478C287.541 240.478 286.497 240.934 285.885 241.738L286.497 242.374C286.965 241.774 287.709 241.366 288.669 241.366C289.497 241.366 290.337 241.81 290.337 242.83C290.337 244.21 288.777 245.542 285.897 247.81V248.602H291.393ZM295.976 248.746C298.16 248.746 299.036 246.55 299.036 244.606C299.036 242.65 298.16 240.478 295.976 240.478C293.78 240.478 292.916 242.65 292.916 244.606C292.916 246.55 293.78 248.746 295.976 248.746ZM295.976 247.858C294.452 247.858 293.936 246.202 293.936 244.606C293.936 243.01 294.452 241.366 295.976 241.366C297.5 241.366 298.016 243.01 298.016 244.606C298.016 246.202 297.5 247.858 295.976 247.858ZM302.783 248.602V240.598H301.907L299.903 242.662L300.503 243.274L301.787 241.918V248.602H302.783ZM307.21 248.746C308.782 248.746 310.078 247.93 310.078 246.574C310.078 245.506 309.166 244.774 308.17 244.474C309.094 244.21 309.958 243.61 309.958 242.554C309.958 241.114 308.53 240.478 307.21 240.478C305.878 240.478 304.474 241.114 304.474 242.554C304.474 243.61 305.326 244.21 306.25 244.474C305.254 244.774 304.342 245.506 304.342 246.574C304.342 247.942 305.626 248.746 307.21 248.746ZM307.21 244.066C306.73 243.982 305.47 243.658 305.47 242.686C305.47 241.858 306.238 241.366 307.21 241.366C308.17 241.366 308.95 241.858 308.95 242.686C308.95 243.658 307.702 243.982 307.21 244.066ZM307.21 247.858C306.214 247.858 305.338 247.33 305.338 246.466C305.338 245.422 306.718 244.978 307.21 244.918C307.702 244.978 309.07 245.422 309.07 246.466C309.07 247.33 308.194 247.858 307.21 247.858Z" fill="white"/>
</g>
<defs>
<clipPath id="clip0">
<rect width="375" height="253" fill="white"/>
</clipPath>
</defs>
</svg>
