<svg width="56" height="19" viewBox="0 0 56 19" fill="none" xmlns="http://www.w3.org/2000/svg">
<path d="M4.8482 0.25H55.25L50.6518 19H0.25L4.8482 0.25Z" fill="#1FDCC5"/>
<path d="M10.9179 14.195C12.4454 14.195 13.9404 13.4312 14.9641 11.7087L12.8841 10.6037C12.4454 11.3837 11.7304 11.8712 11.0641 11.8712C9.99165 11.8712 9.3254 11.0912 9.3254 9.85625C9.3254 7.77625 10.4629 5.30625 12.1041 5.30625C12.9816 5.30625 13.5341 6.005 13.6966 6.99625L16.1829 6.34625C15.8741 4.705 14.7691 2.9825 12.2341 2.9825C8.7404 2.9825 6.6279 6.4275 6.6279 9.92125C6.6279 12.5375 8.3829 14.195 10.9179 14.195ZM22.4442 14L20.9167 9.6775L24.053 6.15125H21.258L18.6905 9.2225L19.3892 6.15125H17.033L15.2942 14H17.6505L18.0405 12.18L18.9992 11.1075L19.7467 14H22.4442ZM26.7929 14.195C29.3766 14.195 31.0016 11.6275 31.0016 9.2875C31.0016 7.3375 29.8316 5.95625 27.5891 5.95625C25.0054 5.95625 23.3804 8.52375 23.3804 10.8637C23.3804 12.8137 24.5504 14.195 26.7929 14.195ZM26.9066 12.115C26.1916 12.115 25.7691 11.7087 25.7691 10.8312C25.7691 9.79125 26.4029 8.03625 27.4754 8.03625C28.1904 8.03625 28.6129 8.4425 28.6129 9.32C28.6129 10.36 27.9791 12.115 26.9066 12.115ZM35.7772 14.195C38.2147 14.195 39.4335 11.0587 39.4335 8.88125C39.4335 6.96375 38.5235 5.95625 37.061 5.95625C36.3297 5.95625 35.696 6.28125 35.0947 7.045L35.306 6.15125H32.9497L30.561 16.99H32.901L33.7622 13.0575C34.1522 13.8375 34.8835 14.195 35.7772 14.195ZM35.2897 12.115C34.7697 12.115 34.331 11.8387 34.136 11.3837L34.721 8.7675C35.0135 8.345 35.436 8.03625 35.891 8.03625C36.5572 8.03625 37.0122 8.5075 37.0122 9.30375C37.0122 10.4087 36.3785 12.115 35.2897 12.115ZM43.3603 14.195C45.944 14.195 47.569 11.6275 47.569 9.2875C47.569 7.3375 46.399 5.95625 44.1565 5.95625C41.5728 5.95625 39.9478 8.52375 39.9478 10.8637C39.9478 12.8137 41.1178 14.195 43.3603 14.195ZM43.474 12.115C42.759 12.115 42.3365 11.7087 42.3365 10.8312C42.3365 9.79125 42.9703 8.03625 44.0428 8.03625C44.7578 8.03625 45.1803 8.4425 45.1803 9.32C45.1803 10.36 44.5465 12.115 43.474 12.115Z" fill="white"/>
</svg>
