<?xml version="1.0" encoding="utf-8"?>
<!-- Generator: Adobe Illustrator 21.0.2, SVG Export Plug-In . SVG Version: 6.00 Build 0)  -->
<svg version="1.1" id="Слой_1" xmlns="http://www.w3.org/2000/svg" xmlns:xlink="http://www.w3.org/1999/xlink" x="0px" y="0px"
	 viewBox="0 0 1502.1 1197.9" style="enable-background:new 0 0 1502.1 1197.9;" xml:space="preserve">
<style type="text/css">
	.st0{fill:#1FDCC5;}
	.st1{fill:#020202;}
</style>
<path class="st0" d="M1459.7,255.1c-279.2,285-858-42.3-1214.3-255.1L0,1197.9C465.7,1120.1,1296.3,759.7,1459.7,255.1z"/>
<path class="st1" d="M1488.5,205c0.9-2.8,8.2-11.1,8.8-11.9c0.5-0.6,3-0.6,2.4,0.2c-2.1,2.7-6.4,17.6-8.6,16.9
	C1490.1,209.9,1487.9,206.9,1488.5,205z"/>
<path class="st1" d="M1477.5,208.4c-1.7,2,4.6-1.3,4.1,0c-0.9,6.2-3.5,11.7-5.3,14.1c0.9,5.4,8.2,4.4,9.1,3.5
	c1.1-2.8,2.6-5.4,4.4-7.8c0.9-1.7,3.3-4.8,3.3-4.8s0.3-2.7-0.4-4.8c-2-2.4-0.8-3.2-4.5-4.6c-2.3-0.9,0.6,0-4.4,0.1
	C1483,204,1478.2,207.5,1477.5,208.4z"/>
<path class="st1" d="M1481,225.7c-0.2-0.7-0.6-1.4-1.1-1.9c-0.5-0.5-1.2-0.9-1.9-1.1c-0.4-0.1-0.8-0.6-1.5-0.4
	c-1.1,1.3-2.1,2.8-3,4.2c-1.3,2.1-2.4,4.2-3.4,6.5c-0.3,0.8-0.6,1.4-0.8,1.9c-1.3,0.5-3,2.6-3,2.6s-2.1,4.2-2.6,6.6
	c-0.2,1.2-1.3,4.5-1.4,4.4c-0.1,0-1.1,0.1-1.1,0.1s-1,1.7-1,3.6c0,0.8-0.2,2.1,0.3,2.4c0.1,0,0.2,0,0.3,0c0.1,0,0.2,0,0.3-0.1
	c1.3-0.6,2.3-2.6,3.4-4.4c0.6-1,1.2-1.9,1.9-2.7c0.9-1.2,2-2.3,3.1-3.4c1.3-1.2,2.1-1.9,2.1-1.9s1-1.8,2-3.1c2.5-3,6.4-4.9,9.2-7.6
	c0,0,2.3-3.6,2.8-5.7C1484.8,225.8,1481.7,225.5,1481,225.7z"/>
<path class="st1" d="M1478.6,219c0,0,1.1-0.6,1.6-1c1.3-1.1,2-1.6,2.2-1.9c2-2,4.9-7.6,3.1-9.5c-0.5-0.3-1-0.6-1.6-0.7
	c-1.6-0.5,0.7-1.5-1-1.3c-1.3,0.2-6.9,4.7-6.9,4.7c-0.8,3.3-0.7,8.7-0.7,8.7L1478.6,219z"/>
<path class="st1" d="M1491.7,201l-3.9,3.5l-0.1,1.8l3.7-0.5L1491.7,201z"/>
<path class="st1" d="M1487.5,197.3c0-0.1-0.1-0.1-0.1-0.2c-0.1-0.1-0.2-0.3-0.3-0.4c-4.2,0.6-4.1,1.4-4.2,3.1
	c-0.1,1,0.2,3.3-1.1,5.2l6.1-0.6c0-0.3-0.4-1.3-0.6-1.6l1.1-0.4c0.1,0,0.1-0.1,0.2-0.2c0-0.1,0.1-0.2,0.1-0.3
	C1489.1,200.5,1488.2,198.5,1487.5,197.3z"/>
<path class="st0" d="M1487.4,197.7L1487.4,197.7c0.3-0.3,0.4-0.5,0.4-0.8c0-0.5,0-1,0-1.5l-0.4,0.5l0-1.2c-1.1,1-2.7,1.6-3.8,2.4
	c-1.3,1-0.8,2.1-0.2,2.9c0.1,0.1,0.2,0.2,0.3,0.3c0.1-0.1,0.3-0.1,0.4,0s0.2,0.1,0.3,0.3c0,0,0.2,0.7,0.3,0.5
	c0.1-0.2,0.4-0.6,0.4-0.6s-0.2-1.4-0.6-1.7c-0.4-0.3,1-0.7,1.1-0.7C1486.2,198.2,1486.8,198.1,1487.4,197.7z"/>
<path d="M1498.7,191.6l-1.4,1.5l1.9,0.9l1.5-2.4l1.3-1.1l-0.1-1.6l-2.2-0.1L1498.7,191.6z"/>
</svg>
