<svg width="514" height="402" viewBox="0 0 514 402" fill="none" xmlns="http://www.w3.org/2000/svg">
<g clip-path="url(#clip0)">
<rect width="514" height="402" fill="transparent"/>
<path d="M458.922 66.2186C362.499 164.633 183 198 -1 172.362L-1.0001 405L222.5 405C296 329.5 416 172.362 458.922 66.2186Z" fill="#1FDCC5"/>
<path d="M453.679 50.7299C453.492 50.942 453.305 51.1542 453.012 51.2728C453.299 51.0544 453.486 50.8422 453.679 50.7299ZM460.951 46.866C461.363 47.0405 461.675 47.2212 461.9 47.6079C461.675 47.2212 461.357 46.9407 460.951 46.866Z" fill="black"/>
<path d="M484.738 17.2151C484.987 18.001 485.511 18.3688 485.511 18.3688C485.511 18.3688 487.191 21.169 489.362 22.2348C485.089 22.8041 483.186 21.2203 481.651 19.1125C482.237 18.8753 482.237 18.8753 482.237 18.8753" fill="black"/>
<path d="M502.443 7.18417C501.395 8.05162 500.772 9.29316 500.448 10.5159C500.036 10.3414 493.083 16.089 491.325 16.8008C487.907 18.218 483.179 19.5173 482.512 21.6633C481.846 23.8094 484.395 19.7414 484.183 19.5543C483.971 19.3672 483.141 18.9184 481.931 18.7941C480.721 18.6698 479.33 18.8575 478.457 19.3131C477.584 19.7688 468.236 27.2702 467.681 28.0064C467.126 28.7427 466.79 29.7659 466.79 29.7659C468.524 28.6549 470.17 29.3529 470.77 30.9184C471.213 31.5919 471.899 31.3484 472.941 30.3811L476.72 29.9431L476.06 32.1889C476.06 32.1889 473.971 34.0236 471.315 36.395C468.091 39.303 465.586 47.2759 464.552 51.5492C463.161 51.7368 461.808 52.5233 461.21 54.1641C460.699 55.599 459.366 61.4942 459.366 61.4942L457.988 61.8815C457.988 61.8815 456.791 65.163 456.617 65.5748C455.975 68.12 457.472 68.0259 457.472 68.0259C457.778 68.1069 458.177 68.0818 458.458 67.7636C464.35 61.0807 470.174 54.9031 476.609 48.8874C480.961 44.8062 482.401 40.6077 485.705 35.7908C487.613 34.2681 494.323 27.8344 494.803 27.5036C495.183 27.1791 497.863 20.3976 497.994 19.2872C498.499 19.3556 504.566 12.261 505.688 10.988C507.016 9.80236 503.591 6.31045 502.443 7.18417Z" fill="black"/>
<path d="M484.545 17.3273C484.545 17.3273 484.164 16.0487 484.014 15.2565C483.489 14.8887 483.115 13.7099 483.501 13.4852C485.235 12.3742 485.136 13.9836 485.136 13.9836C485.136 13.9836 483.551 12.6805 483.6 11.8758C483.656 11.1709 484.435 9.21817 485.209 8.76876C485.982 8.31935 486.487 8.38776 486.918 8.86167C487.455 9.42912 488.097 10.0901 488.104 10.1899C488.11 10.2897 488.122 10.4893 488.122 10.4893C488.122 10.4893 491.093 14.7112 491.224 15.204C491.143 15.5096 491.044 15.5159 490.563 15.8467C490.083 16.1775 490.083 16.1775 490.096 16.3771C490.108 16.5767 490.252 17.269 490.483 17.7555C490.196 17.9739 489.772 19.203 489.623 20.0139C489.074 20.85 488.987 21.0559 487.964 20.7194C487.128 20.1708 485.325 18.5808 484.545 17.3273Z" fill="black"/>
<path fill-rule="evenodd" clip-rule="evenodd" d="M487.235 7.53921C487.473 8.12548 487.735 9.11097 487.367 9.63508C487.093 10.0531 486.606 10.2841 486.02 10.5213C485.334 10.7649 484.648 11.0084 484.299 11.8319C484.399 11.8257 484.405 11.9254 484.511 12.019C484.617 12.1125 484.617 12.1125 484.723 12.206C484.836 12.3994 485.329 13.8713 485.329 13.8713C485.329 13.8713 484.805 13.5035 484.512 13.6221C484.125 13.8468 484.15 14.246 484.157 14.3458C484.163 14.4456 484.288 14.8386 484.506 15.1254C484.725 15.4123 485.236 15.5805 485.236 15.5805C484.762 16.0111 484.787 16.4103 484.713 16.8158C484.725 17.0154 484.731 17.1152 484.644 17.3211L482.958 12.818C482.958 12.818 482.952 12.7182 482.84 12.5248C482.609 12.0384 482.677 11.5331 483.232 10.7968C483.606 10.3725 483.98 9.94822 484.46 9.61743C485.215 8.86862 486.069 8.11353 486.612 7.17765L486.993 8.45625L487.235 7.53921Z" fill="#1FDCC5"/>
<path d="M508.112 4.92398C507.22 5.08026 510.139 2.09127 510.07 2.59656C509.79 2.9148 510.033 1.99775 509.945 2.20363C509.858 2.40951 508.935 3.66988 508.96 4.06909C508.667 4.18772 507.95 3.93225 507.576 4.35656C507.289 4.57499 506.896 4.69989 506.509 4.9246C506.216 5.04323 505.923 5.16184 505.63 5.28047C504.95 5.6238 502.904 6.55399 501.963 7.51497C502.088 7.90791 502.862 10.6648 505.489 11.0006C506.623 9.9273 508.101 7.93062 508.544 7.00102C508.544 7.00102 508.537 6.90121 508.637 6.89494C509.179 5.95906 510.077 4.29948 510.551 3.86889C510.85 3.85006 508.144 5.423 508.325 5.11104C509.166 4.15634 509.004 4.7677 508.112 4.92398Z" fill="black"/>
<path d="M510.924 0.238439L509.615 1.72355C507.882 4.43764 504.7 4.83804 502.636 7.07195C502.761 7.46489 503.536 10.2217 506.162 10.5576C507.297 9.48424 508.775 7.4876 509.217 6.558C509.217 6.558 509.211 6.4582 509.311 6.45192C509.853 5.51605 510.589 4.46783 510.969 4.14332C511.269 4.1245 512.566 4.04291 512.753 3.83076C512.94 3.6186 513.588 2.77626 513.588 2.77626L513.582 1.07332C513.675 0.967238 511.616 0.094712 510.924 0.238439Z" fill="black"/>
<path d="M470.67 30.9248C470.264 29.2469 468.991 28.1246 467.245 29.036C466.141 30.6083 465.051 33.9834 464.671 35.911C464.597 36.3165 464.522 36.722 464.541 37.0214C464.541 37.0214 463.418 38.2943 462.976 39.2239C462.976 39.2239 463.444 40.2967 463.874 40.7706C463.874 40.7706 463.875 40.7706 463.981 40.8641C464.205 41.2508 464.511 41.3317 464.511 41.3317L467.112 39.6653L467.155 38.7608L466.624 38.2931L466.487 37.7006C466.487 37.7006 466.574 37.4947 466.749 37.0829C467.11 36.459 467.914 34.9055 467.914 34.9055C467.914 34.9055 472.666 30.7993 473.234 30.2626C473.595 29.6387 471.013 31.6046 470.67 30.9248Z" fill="black"/>
</g>
<defs>
<clipPath id="clip0">
<rect width="514" height="402" fill="transparent"/>
</clipPath>
</defs>
</svg>
