<svg width="856" height="733" viewBox="0 0 856 733" fill="none" xmlns="http://www.w3.org/2000/svg">
<path fill-rule="evenodd" clip-rule="evenodd" d="M838.601 12.7198C839.464 11.0872 844.93 6.79832 845.387 6.38964C845.783 6.10382 847.294 6.36319 846.871 6.7733C845.256 8.18942 840.902 16.899 839.628 16.2399C839.022 15.9265 837.988 13.8759 838.601 12.7198Z" fill="#020202"/>
<path fill-rule="evenodd" clip-rule="evenodd" d="M831.366 13.6031C830.099 14.6286 834.388 13.3224 833.917 14.0461C832.659 17.7929 830.436 20.853 828.991 22.1286C828.965 25.5525 833.549 25.7607 834.216 25.3215C835.224 23.7312 836.44 22.2819 837.831 21.0119C838.583 20.0691 840.389 18.4216 840.389 18.4216C840.389 18.4216 840.909 16.7762 840.722 15.3984C839.772 13.7036 840.608 13.3375 838.456 12.0154C837.16 11.2234 838.828 12.0644 835.714 11.5591C835.27 11.4938 831.933 13.1221 831.366 13.6031Z" fill="#020202"/>
<path fill-rule="evenodd" clip-rule="evenodd" d="M831.596 24.6529C831.543 24.1849 831.376 23.7372 831.109 23.3497C830.842 22.9621 830.483 22.6467 830.064 22.4313C829.84 22.3345 829.657 21.9683 829.154 22.0125C828.314 22.7132 827.523 23.471 826.787 24.2805C825.743 25.4103 824.796 26.6259 823.957 27.9143C823.657 28.3578 823.404 28.7384 823.234 29.0011C822.399 29.1749 821.085 30.2614 821.085 30.2614C821.085 30.2614 819.271 32.641 818.711 34.0272C818.443 34.7578 817.412 36.6357 817.348 36.6101C817.285 36.5846 816.632 36.5604 816.632 36.5604C816.632 36.5604 815.841 37.503 815.613 38.6641C815.517 39.1428 815.241 39.9244 815.528 40.1532C815.58 40.1827 815.637 40.2011 815.697 40.207C815.756 40.2129 815.816 40.2063 815.873 40.1876C816.765 39.9977 817.568 38.8453 818.471 37.8306C818.941 37.3083 819.441 36.8146 819.97 36.3522C820.688 35.7259 821.45 35.1511 822.249 34.6321C823.178 34.0337 823.767 33.71 823.767 33.71C823.767 33.71 824.568 32.7059 825.352 32.0369C827.225 30.4488 829.851 29.7426 831.917 28.3769C831.917 28.3769 833.761 26.3958 834.328 25.1681C833.88 25.1619 832.033 24.6426 831.596 24.6529Z" fill="#020202"/>
<path fill-rule="evenodd" clip-rule="evenodd" d="M830.864 20.2409C830.864 20.2409 831.619 19.9916 831.956 19.781C832.903 19.2612 833.371 18.9987 833.561 18.871C835.05 17.8687 837.455 14.7584 836.576 13.3835C836.315 13.1176 836.003 12.9079 835.657 12.7673C834.725 12.2551 836.262 11.918 835.2 11.8445C834.384 11.8085 830.419 13.9404 830.419 13.9404C829.551 15.9189 829.013 19.2303 829.013 19.2303L830.864 20.2409Z" fill="#020202"/>
<path fill-rule="evenodd" clip-rule="evenodd" d="M841.007 10.6014L838.215 12.2924L837.913 13.4073L840.263 13.536L841.007 10.6014Z" fill="#020202"/>
<path d="M838.86 7.86037C838.846 7.81386 838.832 7.76735 838.819 7.72084C838.79 7.62634 838.741 7.53902 838.676 7.46456C835.997 7.37039 836 7.83511 835.704 8.9227C835.537 9.53495 835.464 10.9714 834.444 11.9852L838.314 12.3C838.332 12.1223 838.199 11.4345 838.15 11.2699L838.879 11.1482C838.936 11.1329 838.987 11.0981 839.022 11.0497C839.063 10.9886 839.098 10.9239 839.126 10.8563C839.48 9.99766 839.11 8.69786 838.86 7.86037Z" fill="#020202"/>
<path d="M838.708 8.11278L838.767 8.07202C838.903 7.97912 839 7.83931 839.039 7.67955C839.115 7.38037 839.168 7.07573 839.196 6.76839L838.902 7.05466L839.037 6.31448C838.263 6.82765 837.216 7.00117 836.382 7.34C835.471 7.82296 835.675 8.54975 835.91 9.1095C835.948 9.18957 835.992 9.26715 836.04 9.34178C836.124 9.32509 836.211 9.34007 836.285 9.38384C836.359 9.4276 836.414 9.49705 836.439 9.57881C836.439 9.57881 836.497 10.027 836.56 9.93574C836.623 9.84448 836.88 9.6245 836.88 9.6245C836.88 9.6245 836.886 8.75274 836.717 8.52405C836.503 8.27501 837.403 8.18591 837.518 8.19541C837.915 8.27969 838.327 8.25106 838.708 8.11278Z" fill="#1FDCC5"/>
<path d="M846.416 5.65729L845.36 6.42187L846.453 7.20832L847.672 5.90426L848.614 5.39466L848.761 4.37321L847.39 4.06658L846.416 5.65729Z" fill="black"/>
<path d="M816.573 39C816.573 39 647.062 272.102 436 461.931C251.5 627.871 -50 732.448 -50 732.448V569.296V360C265 450 732.872 131.523 816.573 39Z" fill="#1FDCC5"/>
</svg>
